# xmcd
#
# Track frame offsets: 
#        151
#        19104
#        45129
#        65099
#        85248
#        106382
#        123420
#        144203
#        163780
#        181333
#
# Disc length: 2712 seconds
#
# Revision: 0
# Processed by: cddbd v1.5.1PL0 Copyright (c) Steve Scherf et al.
# Submitted via: ExactAudioCopy v0.95a5
#
DISCID=7c0a960a
DTITLE=Mel Waiters - A Nite Out
DYEAR=2003
DGENRE=Blues
TTITLE0=Girls Nite Out
TTITLE1=Whiskey And Blues
TTITLE2=Two Step
TTITLE3=Satisfy You (Before I Satisfy Me)
TTITLE4=Smaller The Club
TTITLE5=She's Got Me Workin'
TTITLE6=Let's Dance
TTITLE7=Your Kitchen Was Closed
TTITLE8=Jealous Kinda Fella
TTITLE9=No Ring
EXTD=
EXTT0=
EXTT1=
EXTT2=
EXTT3=
EXTT4=
EXTT5=
EXTT6=
EXTT7=
EXTT8=
EXTT9=
PLAYORDER=
